D:\school\WTK\thesis\model\3dpredictsim\Results\batch_windlass\Pog_s1_tmt_aCst_d05_k800_WL10_ig24_act_TTC_GRF.mot
nRows=12
nColumns=19

name D:\school\WTK\thesis\model\3dpredictsim\Results\batch_windlass\Pog_s1_tmt_aCst_d05_k800_WL10_ig24_act_TTC_GRF.mot
datacolumns 19
datarows 12
range 0.5870033100 0.7161440382
endheader
time 	ground_force_vx	ground_force_vy	ground_force_vz	ground_force_px	ground_force_py	ground_force_pz	1_ground_force_vx	1_ground_force_vy	1_ground_force_vz	1_ground_force_px	1_ground_force_py	1_ground_force_pz	ground_torque_x	ground_torque_y	ground_torque_z	1_ground_torque_x	1_ground_torque_y	1_ground_torque_z
        0.5870033100	       88.1708330511	      375.7498751054	        1.7629904509	        0.3639972515	        0.0000000000	        0.0320497996	      -70.9508076893	       55.5835624594	      -13.1765858867	        0.8857418581	        0.0000000000	       -0.0642784212	        0.0000000000	        0.0000000000	        0.0000000000	        0.0000000000	        0.0000000000	        0.0000000000	
        0.5987433762	       54.4855887238	      274.3685094328	       11.2005837907	        0.3740032335	        0.0000000000	        0.0273540586	     -148.5059631740	      152.0454449329	      -39.0223393556	        0.9002285162	        0.0000000000	       -0.0639714044	        0.0000000000	        0.0000000000	        0.0000000000	        0.0000000000	        0.0000000000	        0.0000000000	
        0.6104834424	       33.6214008459	      208.3184075132	       18.0369006719	        0.3835045378	        0.0000000000	        0.0224611658	      -78.4925217827	      415.9485970593	       -4.5446981359	        0.9157963060	        0.0000000000	       -0.0645252859	        0.0000000000	        0.0000000000	        0.0000000000	        0.0000000000	        0.0000000000	        0.0000000000	
        0.6222235086	       30.8711083408	      174.5432798940	       17.6472705541	        0.3834540163	        0.0000000000	        0.0225951095	      -95.2338929048	      694.9915066453	       19.3192238322	        0.9255277035	        0.0000000000	       -0.0645728617	        0.0000000000	        0.0000000000	        0.0000000000	        0.0000000000	        0.0000000000	        0.0000000000	
        0.6339635748	       22.9041025733	      126.0077180931	       18.0966938553	        0.3836510899	        0.0000000000	        0.0227663179	     -146.6714554761	      890.0279641361	       23.7852903417	        0.9381139603	        0.0000000000	       -0.0629800290	        0.0000000000	        0.0000000000	        0.0000000000	        0.0000000000	        0.0000000000	        0.0000000000	
        0.6457036410	        4.6050310843	       68.9092476852	       15.7641026481	        0.3829096433	        0.0000000000	        0.0230999128	     -163.3378264501	      945.3277961852	       23.0751405035	        0.9483515406	        0.0000000000	       -0.0611105018	        0.0000000000	        0.0000000000	        0.0000000000	        0.0000000000	        0.0000000000	        0.0000000000	
        0.6574437072	       -5.9036224229	       10.6386610572	        2.3719284187	        0.3792605031	        0.0000000000	        0.0222295531	     -147.4857826787	      897.7851510055	       21.6864095659	        0.9527503409	        0.0000000000	       -0.0600031919	        0.0000000000	        0.0000000000	        0.0000000000	        0.0000000000	        0.0000000000	        0.0000000000	
        0.6691837734	       -2.4048149378	        2.0124799560	       -0.1406821182	        0.0000000000	        0.0000000000	        0.0000000000	     -125.6874990057	      828.2149587289	       20.5220738442	        0.9555577724	        0.0000000000	       -0.0593845817	        0.0000000000	        0.0000000000	        0.0000000000	        0.0000000000	        0.0000000000	        0.0000000000	
        0.6809238396	       -8.0172566029	        5.7665766429	       -0.6095199244	        0.0000000000	        0.0000000000	        0.0000000000	     -109.7183280196	      774.4015266890	       19.6702403326	        0.9587135980	        0.0000000000	       -0.0589325867	        0.0000000000	        0.0000000000	        0.0000000000	        0.0000000000	        0.0000000000	        0.0000000000	
        0.6926639058	       -6.6615230978	        4.2116080553	       -0.5568471615	        0.0000000000	        0.0000000000	        0.0000000000	      -96.9313269562	      737.1928391800	       20.2479603961	        0.9617542334	        0.0000000000	       -0.0585737434	        0.0000000000	        0.0000000000	        0.0000000000	        0.0000000000	        0.0000000000	        0.0000000000	
        0.7044039720	       -4.8063336166	        2.7569593712	       -0.4207936017	        0.0000000000	        0.0000000000	        0.0000000000	      -84.1378564715	      707.2363303866	       21.1032911348	        0.9645469115	        0.0000000000	       -0.0583281816	        0.0000000000	        0.0000000000	        0.0000000000	        0.0000000000	        0.0000000000	        0.0000000000	
        0.7161440382	       -3.3534396801	        1.7739069108	       -0.3085492174	        0.0000000000	        0.0000000000	        0.0000000000	      -71.5528356786	      681.6505697058	       21.8853546951	        0.9684457600	        0.0000000000	       -0.0580050006	        0.0000000000	        0.0000000000	        0.0000000000	        0.0000000000	        0.0000000000	        0.0000000000	
